<?xml version="1.0" encoding="iso-8859-1"?>
<!-- Generator: Adobe Illustrator 19.0.0, SVG Export Plug-In . SVG Version: 6.00 Build 0)  -->
<svg version="1.1" id="Layer_1" xmlns="http://www.w3.org/2000/svg" xmlns:xlink="http://www.w3.org/1999/xlink" x="0px" y="0px"
	 viewBox="0 0 504.123 504.123" style="enable-background:new 0 0 504.123 504.123;" xml:space="preserve">
<g>
	<path style="fill:#33322B;" d="M242.066,245.768c0,14.722-11.949,26.648-26.656,26.648h-90.309
		c-14.714,0-26.656-11.926-26.656-26.648v-9.618c0-14.722,11.941-26.656,26.656-26.656h90.317c14.706,0,26.656,11.934,26.656,26.656
		v9.618H242.066z"/>
	<path style="fill:#33322B;" d="M133.711,215.946c0,18.109-14.675,32.776-32.784,32.776H80.431
		c-18.093,0-32.776-14.667-32.776-32.776V195.45c0-18.117,14.683-32.776,32.776-32.776h20.496c18.109,0,32.784,14.659,32.784,32.776
		V215.946z"/>
</g>
<path style="fill:#D8CA68;" d="M70.664,231.298c22.52,21.929,51.61,30.625,39.66,42.898c-11.941,12.28-39.849,4.458-62.369-17.463
	c-22.52-21.89-31.114-49.577-19.188-61.85C40.724,182.611,48.12,209.408,70.664,231.298z"/>
<path style="fill:#634B27;" d="M39.975,399.738c0,4.907-3.978,8.893-8.885,8.893H8.893c-4.915,0-8.893-3.986-8.893-8.893V104.377
	c0-4.907,3.978-8.885,8.893-8.885H31.09c4.907,0,8.885,3.978,8.885,8.885V399.738z"/>
<path style="fill:#8E6F43;" d="M0,259.096V104.377c0-4.907,3.978-8.885,8.893-8.885H31.09c4.907,0,8.885,3.978,8.885,8.885"/>
<g>
	<path style="fill:#634B27;" d="M464.148,268.705v131.033c0,4.907,3.978,8.893,8.885,8.893h22.205c4.915,0,8.885-3.986,8.885-8.893
		V268.705H464.148z"/>
	<path style="fill:#634B27;" d="M504.123,311.28c0,4.923-3.97,8.893-8.885,8.893H13.32c-4.907,0-8.877-3.97-8.877-8.893v-44.418
		c0-4.907,3.97-8.877,8.877-8.877h481.918c4.915,0,8.885,3.97,8.885,8.877V311.28z"/>
</g>
<path style="fill:#D8CA68;" d="M477.475,267.603c0,14.722,5.829,26.648-8.893,26.648H129.914c-14.706,0,0-11.926,0-26.648v-58.848
	c0-14.722,11.934-26.648,26.656-26.648h294.258c14.706,0,26.648,11.926,26.648,26.648V267.603z"/>
<path style="fill:#E2D779;" d="M468.582,246.138c5.089,0,7.625-1.505,8.893-3.978v-22.678v-10.728
	c0-14.722-11.941-26.648-26.648-26.648H156.57c-14.722,0-26.656,11.926-26.656,26.648v10.728v26.656L468.582,246.138
	L468.582,246.138z"/>
<g>
</g>
<g>
</g>
<g>
</g>
<g>
</g>
<g>
</g>
<g>
</g>
<g>
</g>
<g>
</g>
<g>
</g>
<g>
</g>
<g>
</g>
<g>
</g>
<g>
</g>
<g>
</g>
<g>
</g>
</svg>
