<?xml version="1.0" encoding="iso-8859-1"?>
<!-- Generator: Adobe Illustrator 19.0.0, SVG Export Plug-In . SVG Version: 6.00 Build 0)  -->
<svg version="1.1" id="Layer_1" xmlns="http://www.w3.org/2000/svg" xmlns:xlink="http://www.w3.org/1999/xlink" x="0px" y="0px"
	 viewBox="0 0 512 512" style="enable-background:new 0 0 512 512;" xml:space="preserve">
<path style="fill:#C1BDAB;" d="M26.851,512c-5.933,0-10.741-4.808-10.741-10.741c0-37.51,30.518-68.028,68.028-68.028
	c41.458,0,75.189-33.73,75.189-75.189c0-5.933,4.808-10.741,10.741-10.741s10.741,4.808,10.741,10.741
	c0,53.305-43.366,96.671-96.671,96.671c-25.666,0-46.545,20.88-46.545,46.545C37.592,507.192,32.785,512,26.851,512z"/>
<path style="fill:#E7E4CD;" d="M429.041,1.364C327.33,66.657,225.626,131.942,123.915,197.233l247.249,190.358l0,0
	c2.784-3.559,6.727-10.98,8.189-16.086c0.296-1.037,0.912-3.103,1.343-4.942c0.434-1.853,0.682-3.473,0.682-3.473L440.64,8.833
	C441.712,2.431,434.556-2.176,429.041,1.364z"/>
<g>
	<path style="fill:#AC3C33;" d="M255.397,112.833c0,0,85.851-40.775,115.221-59.628c29.162-18.72,45.554-32.053,59.806-46.752
		c0.924-0.954,2.363-1.212,3.563-0.627l0,0c1.485,0.723,2.12,2.488,1.422,3.97c-26.227,55.729-46.06,67.034-257.518,167.763
		c-2.708,1.29-1.868,5.315,1.139,5.409c11.729,0.367,25.581,2.196,41.799,6.326c1.492,0.38,3.808,1.027,6.173,1.704
		c5.812,1.663,11.999,1.485,17.706-0.501c27.426-9.544,97.777-36.609,134.675-72.105c33.382-32.115,48.449-65.626,60.102-110.224
		c1.502-5.75-4.941-10.332-9.988-7.092L255.397,112.833z"/>
	<path style="fill:#AC3C33;" d="M304.049,223.472c-1.998,0.879-2.296,3.568-0.546,4.862c11.791,8.73,21.451,17.555,29.01,25.314
		c13.752,14.114,37.043,12.358,48.704-3.48c21.782-29.586,29.828-66.126,37.226-108.631l7.341-43.89
		C407.64,156.16,373.811,192.759,304.049,223.472z"/>
</g>
<path style="opacity:0.3;fill:#522D27;enable-background:new    ;" d="M437.268,1.347L288.296,218.028l82.87,169.564
	c5.179-7.019,8.666-15.237,10.216-24.5L440.64,8.833C441.18,5.614,439.636,2.851,437.268,1.347z"/>
<path style="fill:#C1BDAB;" d="M303.774,415.328c-13.215,0-27.393-1.879-42.142-5.585c-37.639-9.458-75.308-29.795-106.071-57.265
	c-30.762-27.468-50.935-58.783-56.804-88.176c-5.802-29.063,3.101-52.86,25.066-67.008l0.193-0.123
	c12.718-8.163,27.142-13.004,41.712-13.997c2.849-0.193,5.797-0.292,8.769-0.292c17.515,0,37.315,3.341,58.852,9.928
	c79.58,24.348,119.192,84.731,119.732,85.565l0.009,0.011c0.458,0.554,43.206,53.202,18.731,107.879l-0.508,1.136l-0.76,0.99
	c-13.313,17.371-37.027,26.938-66.772,26.938H303.774z"/>
<g>
	<path style="opacity:0.2;fill:#522D27;enable-background:new    ;" d="M303.774,404.647c-12.312,0-25.59-1.767-39.466-5.255
		c-35.957-9.036-71.995-28.509-101.473-54.831c-29.046-25.937-48.026-55.173-53.447-82.322
		c-4.962-24.862,2.078-44.227,20.361-56.003l0.178-0.115c11.175-7.174,23.816-11.426,36.55-12.294
		c2.591-0.176,5.29-0.266,8.022-0.266c16.428,0,35.148,3.179,55.641,9.448c75.968,23.243,113.421,80.504,113.79,81.079l0.361,0.56
		l0.427,0.513c0.381,0.46,39.014,48.041,17.192,96.789c-11.224,14.645-31.816,22.697-58.129,22.697
		C303.778,404.647,303.778,404.647,303.774,404.647z"/>
	<path style="opacity:0.1;fill:#522D27;enable-background:new    ;" d="M230.139,203.009c-20.493-6.269-39.213-9.448-55.641-9.448
		c-2.731,0-5.431,0.09-8.022,0.266c-12.735,0.868-25.375,5.12-36.55,12.294l-0.178,0.115
		c-18.283,11.777-25.324,31.141-20.361,56.004c4.423,22.147,17.873,45.682,38.445,67.683l104.585-118.728
		C245.399,208.171,237.977,205.407,230.139,203.009z"/>
</g>
<path style="fill:#C1BDAB;" d="M485.133,426.071c-5.086,0-9.603-3.625-10.552-8.805c-6.672-36.391-38.368-62.805-75.365-62.805
	c-69.099,0-125.315-56.215-125.315-125.315c0-5.933,4.808-10.741,10.741-10.741s10.741,4.808,10.741,10.741
	c0,57.254,46.578,103.832,103.832,103.832c47.37,0,87.952,33.818,96.495,80.412c1.07,5.835-2.793,11.432-8.627,12.501
	C486.428,426.014,485.777,426.071,485.133,426.071z"/>
<g>
</g>
<g>
</g>
<g>
</g>
<g>
</g>
<g>
</g>
<g>
</g>
<g>
</g>
<g>
</g>
<g>
</g>
<g>
</g>
<g>
</g>
<g>
</g>
<g>
</g>
<g>
</g>
<g>
</g>
</svg>
